<svg width="14" height="13" viewBox="0 0 14 13" fill="none" xmlns="http://www.w3.org/2000/svg">
<path d="M2 1.5H12C12.8284 1.5 13.5 2.17157 13.5 3V4.5H0.5V3C0.5 2.17157 1.17157 1.5 2 1.5Z" fill="#272121" stroke="#272121"/>
<rect x="0.5" y="2.5" width="13" height="10" rx="1.5" fill="white" stroke="#272121"/>
<circle cx="3.25" cy="1.25" r="1" fill="white" stroke="#272121" stroke-width="0.5"/>
<circle cx="10.75" cy="1.25" r="1" fill="white" stroke="#272121" stroke-width="0.5"/>
<path d="M5.43302 7.25C5.29495 7.01085 4.98916 6.92892 4.75001 7.06699C4.51087 7.20506 4.42893 7.51085 4.567 7.75L5.43302 7.25ZM10.2349 6.29637C10.4277 6.09871 10.4238 5.78215 10.2262 5.58932C10.0285 5.39648 9.71195 5.4004 9.51912 5.59806L10.2349 6.29637ZM6.25001 9.66506L5.817 9.91506C5.89527 10.0506 6.0325 10.1417 6.18782 10.1612C6.34313 10.1807 6.4986 10.1263 6.60791 10.0142L6.25001 9.66506ZM4.567 7.75L5.817 9.91506L6.68302 9.41506L5.43302 7.25L4.567 7.75ZM6.60791 10.0142L10.2349 6.29637L9.51912 5.59806L5.89211 9.31591L6.60791 10.0142Z" fill="#272121"/>
</svg>
