<svg width="35" height="35" viewBox="0 0 35 35" fill="none" xmlns="http://www.w3.org/2000/svg">
<circle opacity="0.6" cx="17.5" cy="17.5" r="17.5" fill="#ED1C24"/>
<path fill-rule="evenodd" clip-rule="evenodd" d="M23.5444 11.0961C23.5888 11.1738 23.6666 11.2293 23.7666 11.2293C26.4332 11.2293 28.611 13.4047 28.611 16.0684V22.6611C28.611 25.3248 26.4332 27.5001 23.7666 27.5001H11.2332C8.55546 27.5001 6.38879 25.3248 6.38879 22.6611V16.0684C6.38879 13.4047 8.55546 11.2293 11.2332 11.2293C11.3221 11.2293 11.411 11.1849 11.4444 11.0961L11.511 10.9629C11.5493 10.8823 11.5886 10.7995 11.6285 10.7155C11.9128 10.1167 12.2273 9.45435 12.4221 9.06505C12.9332 8.06616 13.7999 7.51122 14.8777 7.50012H20.111C21.1888 7.51122 22.0666 8.06616 22.5777 9.06505C22.7527 9.4147 23.0194 9.97795 23.2764 10.5208C23.3294 10.6327 23.382 10.7438 23.4332 10.852L23.5444 11.0961ZM22.7333 15.358C22.7333 15.9129 23.1778 16.3569 23.7333 16.3569C24.2889 16.3569 24.7444 15.9129 24.7444 15.358C24.7444 14.803 24.2889 14.348 23.7333 14.348C23.1778 14.348 22.7333 14.803 22.7333 15.358ZM15.5775 17.0784C16.0997 16.5567 16.7775 16.2793 17.4997 16.2793C18.222 16.2793 18.8997 16.5567 19.4108 17.0673C19.922 17.5778 20.1997 18.2549 20.1997 18.9763C20.1886 20.4635 18.9886 21.6733 17.4997 21.6733C16.7775 21.6733 16.0997 21.3958 15.5886 20.8853C15.0775 20.3747 14.7997 19.6977 14.7997 18.9763V18.9652C14.7886 18.266 15.0664 17.5889 15.5775 17.0784ZM20.5779 22.0617C19.789 22.8498 18.7001 23.3381 17.5001 23.3381C16.3334 23.3381 15.2445 22.8831 14.4112 22.0617C13.589 21.2293 13.1334 20.1417 13.1334 18.9763C13.1223 17.822 13.5779 16.7343 14.4001 15.9019C15.2334 15.0695 16.3334 14.6145 17.5001 14.6145C18.6668 14.6145 19.7668 15.0695 20.589 15.8908C21.4112 16.7232 21.8668 17.822 21.8668 18.9763C21.8556 20.1861 21.3668 21.2737 20.5779 22.0617Z" fill="white"/>
</svg>
