<svg width="35" height="35" viewBox="0 0 35 35" fill="none" xmlns="http://www.w3.org/2000/svg">
<circle opacity="0.6" cx="17.5" cy="17.5" r="17.5" fill="#ED1C24"/>
<path fill-rule="evenodd" clip-rule="evenodd" d="M6.38904 17.5064C6.38904 11.3736 11.3762 6.38885 17.5002 6.38885C23.6241 6.38885 28.6113 11.3736 28.6113 17.5064C28.6113 23.6264 23.6241 28.6111 17.5002 28.6111C11.3762 28.6111 6.38904 23.6264 6.38904 17.5064ZM21.5756 18.631C21.6936 18.5131 21.8437 18.3309 21.8759 18.288C22.0475 18.0629 22.1333 17.7841 22.1333 17.5065C22.1333 17.1946 22.0368 16.9051 21.8545 16.6693C21.8395 16.6543 21.8103 16.6225 21.7721 16.581C21.7008 16.5034 21.5984 16.3919 21.5005 16.2941C20.6211 15.3507 18.3259 13.8071 17.1247 13.3354C16.9424 13.2614 16.4812 13.0996 16.2346 13.0889C15.9986 13.0889 15.7734 13.1425 15.5589 13.2497C15.2908 13.3997 15.0763 13.6356 14.9583 13.9143C14.8832 14.1072 14.7652 14.6861 14.7652 14.6968C14.6473 15.3293 14.5829 16.3584 14.5829 17.4947C14.5829 18.5785 14.6473 19.5636 14.7438 20.2068C14.7464 20.2095 14.7557 20.2555 14.77 20.3269C14.8136 20.5442 14.9043 20.9968 15.0012 21.1823C15.2371 21.6326 15.6983 21.9113 16.1917 21.9113H16.2346C16.5563 21.9006 17.232 21.6218 17.232 21.6111C18.3688 21.1395 20.6104 19.6708 21.5113 18.6953L21.5756 18.631Z" fill="white"/>
</svg>
