<svg width="31" height="30" viewBox="0 0 31 30" fill="none" xmlns="http://www.w3.org/2000/svg">
<g clip-path="url(#clip0_102_2799)">
<path d="M27.8367 0L3.35082 0C1.98346 0 0.875 1.11806 0.875 2.49725L0.875 27.1951C0.875 28.5743 1.98346 29.6923 3.35082 29.6923H27.8367C29.204 29.6923 30.3125 28.5743 30.3125 27.1951V2.49725C30.3125 1.11806 29.204 0 27.8367 0Z" fill="white"/>
<path d="M16.5371 23.0748L16.5371 14.9837H19.2358L19.6418 11.8222L16.5371 11.8222L16.5371 9.82441C16.5371 8.91041 16.7897 8.2861 18.0919 8.2861H19.7507L19.7507 5.40927C18.9465 5.32241 18.1382 5.28072 17.3294 5.2844C14.9377 5.2844 13.2988 6.75778 13.2988 9.4648L13.2988 11.7972H10.5902L10.5902 14.9837H13.2988L13.2988 23.0748H16.5371Z" fill="#24326F"/>
</g>
<defs>
<clipPath id="clip0_102_2799">
<rect width="29.4375" height="29.6923" fill="white" transform="translate(0.875)"/>
</clipPath>
</defs>
</svg>
