<svg width="30" height="30" viewBox="0 0 30 30" fill="none" xmlns="http://www.w3.org/2000/svg">
<g clip-path="url(#clip0_102_2784)">
<path d="M26.9617 0L2.47582 0C1.10846 0 0 1.11806 0 2.49725L0 27.1951C0 28.5743 1.10846 29.6923 2.47582 29.6923L26.9617 29.6923C28.329 29.6923 29.4375 28.5743 29.4375 27.1951L29.4375 2.49725C29.4375 1.11806 28.329 0 26.9617 0Z" fill="white"/>
<path d="M19.4999 5L8.99994 5C8.06166 5 4.29999 9.61746 4.29999 10.5L4.29999 19C4.29999 19.8825 7.56166 24 8.49994 24L19.4999 24C20.4382 24 24.5 19.8825 24.5 19L24.5 10.5C24.5 9.61746 20.4382 5 19.4999 5Z" fill="#24326F"/>
<path d="M18.321 24.353L10.5173 24.353C8.85547 24.3504 7.26251 23.6833 6.08745 22.4981C4.91239 21.3129 4.25109 19.7061 4.24847 18.03L4.24847 11.1026C4.25109 9.42642 4.91239 7.81966 6.08745 6.63443C7.26251 5.44921 8.85547 4.78218 10.5173 4.77954L18.321 4.77954C19.9802 4.78614 21.5694 5.45491 22.7412 6.63971C23.9131 7.82451 24.5724 9.42901 24.575 11.1026L24.575 18.03C24.5724 19.7035 23.9131 21.308 22.7412 22.4928C21.5694 23.6776 19.9802 24.3464 18.321 24.353ZM10.5173 6.18799C9.22455 6.18799 7.98472 6.70562 7.07018 7.62714C6.15564 8.54866 5.6412 9.79869 5.63989 11.1026L5.63989 18.03C5.64251 19.3334 6.15737 20.5827 7.07163 21.5039C7.98588 22.4252 9.22495 22.9432 10.5173 22.9445L18.321 22.9445C19.6129 22.9432 20.8514 22.425 21.7649 21.5036C22.6784 20.5823 23.1921 19.333 23.1935 18.03L23.1935 11.1026C23.1921 9.79956 22.6784 8.55028 21.7649 7.6289C20.8514 6.70752 19.6129 6.18931 18.321 6.18799L10.5173 6.18799Z" fill="#24326F"/>
<path d="M14.4093 20.1928C13.3056 20.1928 12.2267 19.8627 11.3089 19.2442C10.3912 18.6257 9.67597 17.7466 9.25359 16.718C8.83122 15.6895 8.7207 14.5577 8.93603 13.4659C9.15135 12.374 9.68284 11.371 10.4633 10.5838C11.2437 9.79662 12.2381 9.26053 13.3206 9.04334C14.4031 8.82615 15.5252 8.93762 16.5449 9.36365C17.5646 9.78968 18.4361 10.5111 19.0493 11.4368C19.6625 12.3624 19.9898 13.4507 19.9898 14.564C19.9885 16.0564 19.4001 17.4874 18.3539 18.5427C17.3076 19.598 15.8889 20.1915 14.4093 20.1928ZM14.4093 10.3436C13.5806 10.3436 12.7704 10.5916 12.0815 11.0561C11.3925 11.5206 10.8555 12.1808 10.5386 12.9532C10.2217 13.7255 10.139 14.5754 10.3011 15.3951C10.4631 16.2149 10.8626 16.9678 11.4489 17.5585C12.0353 18.1492 12.7822 18.5513 13.5951 18.7138C14.408 18.8762 15.2505 18.7918 16.0158 18.4713C16.7812 18.1507 17.4351 17.6083 17.8948 16.9128C18.3545 16.2173 18.5994 15.3999 18.5984 14.564C18.5971 13.4442 18.1551 12.3708 17.3697 11.5794C16.5842 10.7881 15.5195 10.3436 14.4093 10.3436Z" fill="white"/>
<path d="M21.0643 9.11C21.0643 9.34115 20.9964 9.56711 20.869 9.7593C20.7417 9.95149 20.5608 10.1013 20.349 10.1897C20.1373 10.2782 19.9043 10.3013 19.6796 10.2563C19.4548 10.2112 19.2484 10.0998 19.0863 9.9364C18.9243 9.77295 18.8139 9.56471 18.7692 9.338C18.7245 9.11129 18.7475 8.8763 18.8351 8.66275C18.9228 8.4492 19.0714 8.26667 19.2619 8.13825C19.4524 8.00983 19.6765 7.94128 19.9056 7.94128C20.2129 7.94128 20.5076 8.06442 20.7249 8.28359C20.9422 8.50277 21.0643 8.80004 21.0643 9.11Z" fill="white"/>
</g>
<defs>
<clipPath id="clip0_102_2784">
<rect width="29.4375" height="29.6923" fill="white"/>
</clipPath>
</defs>
</svg>
