<svg width="31" height="30" viewBox="0 0 31 30" fill="none" xmlns="http://www.w3.org/2000/svg">
<rect x="0.75" width="29.44" height="29.44" rx="2" fill="white"/>
<path fill-rule="evenodd" clip-rule="evenodd" d="M17.3977 7.18469C18.2687 7.18469 18.9748 7.8908 18.9748 8.76184C18.9748 9.90316 19.787 10.8609 20.8661 11.0802C21.7197 11.2537 22.271 12.0863 22.0975 12.9398C21.924 13.7934 21.0914 14.3448 20.2378 14.1713C19.7954 14.0813 19.372 13.9385 18.9748 13.7497V18.2247C18.9748 20.8378 16.8565 22.9561 14.2434 22.9561C11.6303 22.9561 9.51196 20.8378 9.51196 18.2247C9.51196 16.0179 11.0213 14.1676 13.0617 13.6424C13.9052 13.4253 14.7651 13.9331 14.9822 14.7767C15.1993 15.6202 14.6915 16.4801 13.8479 16.6972C13.1674 16.8723 12.6662 17.492 12.6662 18.2247C12.6662 19.0957 13.3724 19.8018 14.2434 19.8018C15.1144 19.8018 15.8205 19.0957 15.8205 18.2247V8.76184C15.8205 7.8908 16.5266 7.18469 17.3977 7.18469Z" fill="#24326F"/>
</svg>
