<svg width="30" height="30" viewBox="0 0 30 30" fill="none" xmlns="http://www.w3.org/2000/svg">
<g clip-path="url(#clip0_102_2792)">
<path d="M27.3992 0L2.91332 0C1.54596 0 0.4375 1.11806 0.4375 2.49725L0.4375 27.1951C0.4375 28.5743 1.54596 29.6923 2.91332 29.6923H27.3992C28.7665 29.6923 29.875 28.5743 29.875 27.1951V2.49725C29.875 1.11806 28.7665 0 27.3992 0Z" fill="white"/>
<path d="M22.9079 9.64901C22.681 9.71458 22.4456 9.7449 22.2097 9.73891V9.66399C22.5761 9.36932 23.4971 8.46531 23.6159 8.04078C23.6704 7.86098 23.6159 7.79605 23.6159 7.79106L22.4424 8.29051L21.4521 8.73502C21.0799 8.35315 20.6348 8.05137 20.1438 7.84791C19.6527 7.64446 19.1258 7.54356 18.595 7.55132C16.55 7.55132 14.8912 9.00971 14.8912 10.8127C14.8891 11.2289 14.9407 11.6436 15.0447 12.0464C15.0447 11.9515 15.0447 12.1413 15.0447 12.0464C13.4651 11.9144 11.9295 11.4554 10.5337 10.6979C7.56273 9.1995 7.38447 8.13068 7.38447 8.13068C6.91902 8.63013 6.67639 10.2833 7.15174 11.5769C7.46465 12.2042 7.92543 12.7444 8.49364 13.1502C8.16911 13.1481 7.8468 13.0959 7.53797 12.9953C7.2983 12.9243 7.07228 12.8128 6.8695 12.6657C6.5823 13.3749 7.16165 14.6635 8.16683 15.5575C8.66097 15.9424 9.2194 16.235 9.81572 16.4216L8.14702 16.4715C8.05294 18.1097 11.5488 19.0786 11.5488 19.0786C10.5654 19.8798 9.34644 20.3295 8.08265 20.3572C7.43723 20.3561 6.79527 20.2619 6.17627 20.0775C7.89249 21.5794 10.1045 22.3777 12.3757 22.3151C18.6049 21.9904 22.1305 16.5764 22.3186 11.2622C22.6583 11.0446 22.968 10.7826 23.2396 10.4831C23.6269 10.072 23.9598 9.61198 24.2299 9.1146C24.2299 9.1146 23.3089 9.53913 22.9079 9.64901Z" fill="#24326F"/>
</g>
<defs>
<clipPath id="clip0_102_2792">
<rect width="29.4375" height="29.6923" fill="white" transform="translate(0.4375)"/>
</clipPath>
</defs>
</svg>
