<svg width="30" height="30" viewBox="0 0 30 30" fill="none" xmlns="http://www.w3.org/2000/svg">
<g clip-path="url(#clip0_102_2804)">
<path d="M27.2742 0L2.78832 0C1.42096 0 0.3125 1.11806 0.3125 2.49725L0.3125 27.1951C0.3125 28.5743 1.42096 29.6923 2.78832 29.6923H27.2742C28.6415 29.6923 29.75 28.5743 29.75 27.1951V2.49725C29.75 1.11806 28.6415 0 27.2742 0Z" fill="white"/>
<path d="M20.7577 8.24792L9.6611 8.24792C7.65929 8.24792 6.0365 9.88476 6.0365 11.9039L6.0365 18.4317C6.0365 20.4509 7.65929 22.0877 9.6611 22.0877L20.7577 22.0877C22.7595 22.0877 24.3823 20.4508 24.3823 18.4317L24.3823 11.9039C24.3823 9.88476 22.7595 8.24792 20.7577 8.24792Z" fill="#24326F"/>
<path d="M13.5927 12.4783L18.2175 15.1703L13.5927 17.8573L13.5927 12.4783Z" fill="white"/>
<path d="M13.5927 12.4783L17.653 15.4949L18.2175 15.1703L13.5927 12.4783Z" fill="white"/>
</g>
<defs>
<clipPath id="clip0_102_2804">
<rect width="29.4375" height="29.6923" fill="white" transform="translate(0.3125)"/>
</clipPath>
</defs>
</svg>
