<svg width="30" height="30" viewBox="0 0 30 30" fill="none" xmlns="http://www.w3.org/2000/svg">
<rect width="30" height="30" rx="4" fill="white"/>
<rect width="30" height="30" rx="4" fill="#ED1C24"/>
<mask id="path-3-inside-1_1_1509" fill="white">
<path fill-rule="evenodd" clip-rule="evenodd" d="M18.118 13.916C18.118 16.7322 15.9782 18.832 13.5589 18.832C11.1396 18.832 8.99992 16.7322 9 13.916C9.00008 11.0998 11.1398 9 13.5592 9C15.9785 9 18.1181 11.0998 18.118 13.916ZM17.7582 19.2289C16.6205 20.2298 15.1564 20.832 13.5588 20.832C9.93638 20.832 6.99989 17.7356 7 13.916C7.00011 10.0964 9.93677 7 13.5592 7C17.1817 7 20.1182 10.0964 20.118 13.916C20.118 15.4489 19.645 16.8653 18.8446 18.0118L22.7256 21.5457C23.0589 21.8492 23.0932 22.3743 22.8021 22.7186C22.5111 23.0628 22.0049 23.0958 21.6716 22.7923L17.7582 19.2289Z"/>
</mask>
<path fill-rule="evenodd" clip-rule="evenodd" d="M18.118 13.916C18.118 16.7322 15.9782 18.832 13.5589 18.832C11.1396 18.832 8.99992 16.7322 9 13.916C9.00008 11.0998 11.1398 9 13.5592 9C15.9785 9 18.1181 11.0998 18.118 13.916ZM17.7582 19.2289C16.6205 20.2298 15.1564 20.832 13.5588 20.832C9.93638 20.832 6.99989 17.7356 7 13.916C7.00011 10.0964 9.93677 7 13.5592 7C17.1817 7 20.1182 10.0964 20.118 13.916C20.118 15.4489 19.645 16.8653 18.8446 18.0118L22.7256 21.5457C23.0589 21.8492 23.0932 22.3743 22.8021 22.7186C22.5111 23.0628 22.0049 23.0958 21.6716 22.7923L17.7582 19.2289Z" fill="white"/>
<path d="M18.118 13.916L17.118 13.916L18.118 13.916ZM9 13.916L8 13.916L9 13.916ZM17.7582 19.2289L18.4315 18.4895L17.7697 17.8869L17.0977 18.4781L17.7582 19.2289ZM7 13.916L6 13.916L7 13.916ZM20.118 13.916L19.118 13.916L20.118 13.916ZM18.8446 18.0118L18.0246 17.4393L17.5217 18.1597L18.1713 18.7512L18.8446 18.0118ZM22.7256 21.5457L22.0524 22.2851L22.0524 22.2851L22.7256 21.5457ZM22.8021 22.7186L23.5658 23.3642L23.5658 23.3642L22.8021 22.7186ZM21.6716 22.7923L22.3449 22.0529L22.3449 22.0529L21.6716 22.7923ZM13.5589 19.832C16.5736 19.832 19.118 17.2405 19.118 13.916L17.118 13.916C17.118 16.224 15.3829 17.832 13.5589 17.832V19.832ZM8 13.916C7.99991 17.2404 10.5442 19.832 13.5589 19.832V17.832C11.7349 17.832 9.99993 16.2241 10 13.916L8 13.916ZM13.5592 8C10.5445 8 8.0001 10.5916 8 13.916L10 13.916C10.0001 11.608 11.7352 10 13.5592 10V8ZM19.118 13.916C19.1181 10.5916 16.5739 8 13.5592 8V10C15.3831 10 17.1181 11.608 17.118 13.916L19.118 13.916ZM13.5588 21.832C15.4144 21.832 17.1099 21.1311 18.4187 19.9797L17.0977 18.4781C16.1311 19.3285 14.8984 19.832 13.5588 19.832V21.832ZM6 13.916C5.99988 18.2373 9.3348 21.832 13.5588 21.832V19.832C10.538 19.832 7.99991 17.234 8 13.916L6 13.916ZM13.5592 6C9.33523 6 6.00012 9.5947 6 13.916L8 13.916C8.00009 10.5981 10.5383 8 13.5592 8V6ZM21.118 13.916C21.1182 9.59474 17.7832 6 13.5592 6V8C16.5801 8 19.1181 10.5981 19.118 13.916L21.118 13.916ZM19.6645 18.5842C20.5805 17.2722 21.118 15.6565 21.118 13.916L19.118 13.916C19.118 15.2412 18.7095 16.4583 18.0246 17.4393L19.6645 18.5842ZM18.1713 18.7512L22.0524 22.2851L23.3989 20.8063L19.5178 17.2724L18.1713 18.7512ZM22.0524 22.2851C22.0162 22.2522 22.0021 22.2122 22.0001 22.182C21.9982 22.1517 22.0069 22.1102 22.0385 22.0729L23.5658 23.3642C24.2042 22.6092 24.13 21.4721 23.3989 20.8063L22.0524 22.2851ZM22.0385 22.0729C22.0717 22.0336 22.1265 22.0044 22.1876 22.0005C22.2487 21.9965 22.3068 22.0183 22.3449 22.0529L20.9984 23.5317C21.7507 24.2168 22.9088 24.1412 23.5658 23.3642L22.0385 22.0729ZM22.3449 22.0529L18.4315 18.4895L17.085 19.9683L20.9984 23.5317L22.3449 22.0529Z" fill="white" mask="url(#path-3-inside-1_1_1509)"/>
</svg>
