<svg width="20" height="20" viewBox="0 0 20 20" fill="none" xmlns="http://www.w3.org/2000/svg">
<g clip-path="url(#clip0_36_2219)">
<path d="M0 10C0 14.3438 2.78516 18.0508 6.66797 19.4258V0.574219C2.78516 1.94922 0 5.65625 0 10Z" fill="black"/>
<path d="M19.9999 10C19.9999 5.65625 17.2109 1.94922 13.332 0.574219V19.4297C17.2109 18.0508 19.9999 14.3438 19.9999 10Z" fill="#ED1C24"/>
<path d="M10 0C8.83203 0 7.71094 0.203125 6.66797 0.574219V19.4297C7.71094 19.8008 8.83203 20.0039 10 20.0039C11.168 20.0039 12.2891 19.8008 13.332 19.4297V0.574219C12.2891 0.203125 11.168 0 10 0Z" fill="#F9DF47"/>
</g>
<defs>
<clipPath id="clip0_36_2219">
<rect width="20" height="20" fill="white"/>
</clipPath>
</defs>
</svg>
