<svg width="20" height="20" viewBox="0 0 20 20" fill="none" xmlns="http://www.w3.org/2000/svg">
<g clip-path="url(#clip0_36_2212)">
<path d="M20.0003 9.99997C20.0003 5.58556 17.1392 1.84191 13.1707 0.515869V19.4836C17.1392 18.1575 20.0003 14.4141 20.0003 9.99997Z" fill="url(#paint0_linear_36_2212)"/>
<path d="M0 9.99997C0 14.4141 2.8614 18.1575 6.82984 19.4836V0.515869C2.8614 1.84191 0 5.58556 0 9.99997Z" fill="url(#paint1_linear_36_2212)"/>
<path d="M10.0004 20.0005C11.1091 20.0005 12.1741 19.8171 13.171 19.4839V0.516382C12.1743 0.18342 11.1091 0 10.0004 0C8.89186 0 7.82642 0.18342 6.82996 0.516382V19.4841C7.82642 19.8171 8.89186 20.0005 10.0004 20.0005Z" fill="#F9F9F9"/>
</g>
<defs>
<linearGradient id="paint0_linear_36_2212" x1="16.5857" y1="0.515723" x2="16.5857" y2="19.4834" gradientUnits="userSpaceOnUse">
<stop stop-color="#ED2224"/>
<stop offset="1" stop-color="#ED2224"/>
</linearGradient>
<linearGradient id="paint1_linear_36_2212" x1="6.82974" y1="9.99966" x2="0" y2="9.99966" gradientUnits="userSpaceOnUse">
<stop stop-color="#1A4697"/>
<stop offset="1" stop-color="#3150A3"/>
</linearGradient>
<clipPath id="clip0_36_2212">
<rect width="20" height="20.0005" fill="white"/>
</clipPath>
</defs>
</svg>
